# xmcd
# 
# Track frame offsets:
#     150
#     39385
#     52475
#     103050
#     137335
#     163115
#     187035
#     205802
# 
# Disc length: 3909
# 
# Revision: 2
# Processed by: cddbd v1.5.2PL0 Copyright (c) Steve Scherf et al.
# Submitted via: fre:ac v1.1beta1pre3
# 
DISCID=730f4308
DTITLE=Raymond Lewenthal - Alkan and Liszt: Works For Piano
DYEAR=0
DGENRE=
TTITLE0=Alkan: Le Festin D'Esope, Op. 39, No. 1
TTITLE1=Alkan: Barcarolle, Op. 65, No. 6
TTITLE2=Alkan: Quasi-Faust (2nd movement from Grande Sonate, Op. 33)
TTITLE3=Alkan: Symphonie - Allegro moderato
TTITLE4=Alkan: Symphonie - Marche funebre. Andantino
TTITLE5=Alkan: Symphonie - Menuet
TTITLE6=Alkan: Symphonie - Finale. Presto
TTITLE7=Liszt: Hexameron (Morceaux de concert)
EXTD=rec'd:\nAlkan - 1965\nLiszt - 1966
EXTT0=
EXTT1=
EXTT2=
EXTT3=
EXTT4=
EXTT5=
EXTT6=
EXTT7=
PLAYORDER=
